<svg width="24" height="24" viewBox="0 0 24 24" fill="none" xmlns="http://www.w3.org/2000/svg">
<path d="M12.0001 19C11.1581 19 10.3151 18.822 9.49609 18.505" stroke="#090A0B" stroke-width="1.5" stroke-linecap="round" stroke-linejoin="round"/>
<path d="M20.882 12.468C18.99 15.967 15.495 19 12 19" stroke="#090A0B" stroke-width="1.5" stroke-linecap="round" stroke-linejoin="round"/>
<path d="M19.0791 8.92102C19.77 9.72609 20.3743 10.6016 20.8821 11.533C20.9594 11.6767 20.9998 11.8374 20.9998 12.0005C20.9998 12.1637 20.9594 12.3243 20.8821 12.468" stroke="#090A0B" stroke-width="1.5" stroke-linecap="round" stroke-linejoin="round"/>
<path d="M5 19L19 5" stroke="#090A0B" stroke-width="1.5" stroke-linecap="round" stroke-linejoin="round"/>
<path d="M9.773 14.227C9.18223 13.6363 8.85034 12.835 8.85034 11.9995C8.85034 11.5858 8.93182 11.1762 9.09013 10.794C9.24844 10.4118 9.48048 10.0645 9.773 9.77203C10.0655 9.47951 10.4128 9.24747 10.795 9.08916C11.1772 8.93085 11.5868 8.84937 12.0005 8.84937C12.836 8.84937 13.6372 9.18126 14.228 9.77203" stroke="#090A0B" stroke-width="1.5" stroke-linecap="round" stroke-linejoin="round"/>
<path d="M17.044 6.956C15.497 5.759 13.748 5 12 5C8.50498 5 4.5 8 3.11798 11.533C3.0407 11.6767 3.00024 11.8373 3.00024 12.0005C3.00024 12.1637 3.0407 12.3243 3.11798 12.468C4.06398 14.217 5.40998 15.849 6.95598 17.045" stroke="#090A0B" stroke-width="1.5" stroke-linecap="round" stroke-linejoin="round"/>
</svg>
