<svg width="24" height="24" viewBox="0 0 24 24" fill="none" xmlns="http://www.w3.org/2000/svg">
<path d="M14.122 9.88C14.6843 10.4432 15.0002 11.2066 15.0002 12.0025C15.0002 12.7984 14.6843 13.5618 14.122 14.125C13.5588 14.6873 12.7954 15.0032 11.9995 15.0032C11.2036 15.0032 10.4402 14.6873 9.87698 14.125C9.31463 13.5618 8.99878 12.7984 8.99878 12.0025C8.99878 11.2066 9.31463 10.4432 9.87698 9.88C10.1556 9.60107 10.4865 9.37979 10.8507 9.22882C11.2149 9.07785 11.6052 9.00014 11.9995 9.00014C12.3937 9.00014 12.7841 9.07785 13.1483 9.22882C13.5125 9.37979 13.8434 9.60107 14.122 9.88" stroke="#090A0B" stroke-width="1.5" stroke-linecap="round" stroke-linejoin="round"/>
<path d="M3 12C3 11.341 3.152 10.689 3.446 10.088C4.961 6.991 8.309 5 12 5C15.691 5 19.039 6.991 20.554 10.088C20.848 10.689 21 11.341 21 12C21 12.659 20.848 13.311 20.554 13.912C19.039 17.009 15.691 19 12 19C8.309 19 4.961 17.009 3.446 13.912C3.15344 13.317 3.00088 12.663 3 12V12Z" stroke="#090A0B" stroke-width="1.5" stroke-linecap="round" stroke-linejoin="round"/>
</svg>
