<svg width="41" height="40" viewBox="0 0 41 40" fill="none" xmlns="http://www.w3.org/2000/svg">
<path d="M20.5061 31.6666C19.1028 31.6666 17.6978 31.3699 16.3328 30.8416" stroke="white" stroke-width="1.5" stroke-linecap="round" stroke-linejoin="round"/>
<path d="M35.3094 20.78C32.1561 26.6117 26.3311 31.6667 20.5061 31.6667" stroke="white" stroke-width="1.5" stroke-linecap="round" stroke-linejoin="round"/>
<path d="M32.3044 14.8683C33.4559 16.2101 34.4631 17.6692 35.3094 19.2216C35.4383 19.4611 35.5057 19.7288 35.5057 20.0008C35.5057 20.2727 35.4383 20.5404 35.3094 20.78" stroke="white" stroke-width="1.5" stroke-linecap="round" stroke-linejoin="round"/>
<path d="M8.83936 31.6667L32.1727 8.33334" stroke="white" stroke-width="1.5" stroke-linecap="round" stroke-linejoin="round"/>
<path d="M16.7939 23.7117C15.8093 22.7271 15.2561 21.3917 15.2561 19.9992C15.2561 19.3097 15.3919 18.627 15.6558 17.99C15.9196 17.353 16.3063 16.7742 16.7939 16.2867C17.2814 15.7992 17.8602 15.4124 18.4972 15.1486C19.1342 14.8847 19.8169 14.7489 20.5064 14.7489C21.8988 14.7489 23.2343 15.3021 24.2189 16.2867" stroke="white" stroke-width="1.5" stroke-linecap="round" stroke-linejoin="round"/>
<path d="M28.9126 11.5933C26.3343 9.59834 23.4192 8.33334 20.5059 8.33334C14.6809 8.33334 8.00594 13.3333 5.70258 19.2217C5.57377 19.4612 5.50635 19.7289 5.50635 20.0008C5.50635 20.2728 5.57377 20.5405 5.70258 20.78C7.27925 23.695 9.52258 26.415 12.0992 28.4083" stroke="white" stroke-width="1.5" stroke-linecap="round" stroke-linejoin="round"/>
</svg>
